<svg id="svg" version="1.1" xmlns="http://www.w3.org/2000/svg" xmlns:xlink="http://www.w3.org/1999/xlink" width="400" height="400" viewBox="0, 0, 400,400"><g id="svgg"><path id="path0" d="M182.333 4.780 C 182.260 4.989,180.535 5.192,178.500 5.232 C 176.465 5.272,174.800 5.461,174.800 5.653 C 174.800 5.844,173.540 6.000,172.000 6.000 C 170.400 6.000,169.200 6.171,169.200 6.400 C 169.200 6.622,168.133 6.800,166.800 6.800 C 165.467 6.800,164.400 6.978,164.400 7.200 C 164.400 7.420,163.601 7.600,162.624 7.600 C 161.647 7.600,160.752 7.754,160.636 7.941 C 160.520 8.129,159.142 8.402,157.574 8.548 C 156.007 8.693,154.390 8.991,153.982 9.210 C 153.574 9.428,152.736 9.664,152.120 9.735 C 151.504 9.805,150.730 9.969,150.400 10.099 C 149.712 10.370,147.987 10.760,146.096 11.073 C 145.379 11.191,144.694 11.449,144.573 11.644 C 144.452 11.840,143.924 12.000,143.400 12.000 C 142.876 12.000,142.336 12.180,142.200 12.400 C 142.064 12.620,141.423 12.800,140.776 12.800 C 140.129 12.800,139.600 12.980,139.600 13.200 C 139.600 13.420,139.060 13.600,138.400 13.600 C 137.740 13.600,137.200 13.780,137.200 14.000 C 137.200 14.220,136.660 14.400,136.000 14.400 C 135.340 14.400,134.800 14.580,134.800 14.800 C 134.800 15.020,134.438 15.200,133.995 15.200 C 133.552 15.200,132.832 15.380,132.395 15.600 C 131.958 15.820,131.242 16.180,130.805 16.400 C 130.368 16.620,129.648 16.800,129.205 16.800 C 128.762 16.800,128.400 16.980,128.400 17.200 C 128.400 17.420,127.950 17.600,127.400 17.600 C 126.850 17.600,126.400 17.780,126.400 18.000 C 126.400 18.220,126.040 18.400,125.600 18.400 C 125.160 18.400,124.800 18.580,124.800 18.800 C 124.800 19.020,124.451 19.200,124.024 19.200 C 123.597 19.200,123.136 19.380,123.000 19.600 C 122.864 19.820,122.313 20.000,121.776 20.000 C 121.239 20.000,120.800 20.180,120.800 20.400 C 120.800 20.620,120.440 20.800,120.000 20.800 C 119.560 20.800,119.200 20.980,119.200 21.200 C 119.200 21.420,118.840 21.600,118.400 21.600 C 117.960 21.600,117.600 21.780,117.600 22.000 C 117.600 22.220,117.240 22.400,116.800 22.400 C 116.360 22.400,116.000 22.580,116.000 22.800 C 116.000 23.020,115.766 23.200,115.480 23.200 C 114.744 23.200,112.807 24.141,112.803 24.500 C 112.801 24.665,112.485 24.801,112.100 24.801 C 111.715 24.802,110.815 25.160,110.100 25.596 C 109.385 26.032,108.800 26.288,108.800 26.166 C 108.800 26.043,108.515 26.227,108.168 26.575 C 107.820 26.923,107.370 27.105,107.168 26.980 C 106.965 26.855,106.800 26.943,106.800 27.176 C 106.800 27.409,106.440 27.600,106.000 27.600 C 105.560 27.600,105.200 27.780,105.200 28.000 C 105.200 28.220,104.958 28.400,104.662 28.400 C 104.366 28.400,103.798 28.760,103.400 29.200 C 103.002 29.640,102.344 30.000,101.938 30.000 C 101.532 30.000,101.200 30.180,101.200 30.400 C 101.200 30.620,100.840 30.800,100.400 30.800 C 99.960 30.800,99.600 30.980,99.600 31.200 C 99.600 31.420,99.375 31.607,99.100 31.616 C 98.825 31.625,97.977 32.165,97.215 32.816 C 96.453 33.467,95.598 34.000,95.315 34.000 C 95.032 34.000,94.800 34.180,94.800 34.400 C 94.800 34.620,94.564 34.800,94.275 34.800 C 93.987 34.800,93.364 35.160,92.892 35.600 C 92.420 36.040,91.846 36.400,91.617 36.400 C 91.388 36.400,91.200 36.580,91.200 36.800 C 91.200 37.020,90.912 37.200,90.560 37.200 C 90.209 37.200,89.417 37.740,88.800 38.400 C 88.183 39.060,87.457 39.600,87.186 39.600 C 86.916 39.600,86.403 39.915,86.047 40.300 C 85.691 40.685,84.770 41.351,84.000 41.780 C 82.527 42.601,82.030 42.958,80.771 44.100 C 80.347 44.485,79.860 44.800,79.688 44.800 C 79.517 44.800,79.117 45.160,78.800 45.600 C 78.483 46.040,78.091 46.400,77.929 46.400 C 77.767 46.400,76.862 47.118,75.917 47.995 C 74.973 48.872,74.067 49.592,73.905 49.595 C 73.742 49.598,72.540 50.680,71.232 52.000 C 69.924 53.320,68.733 54.400,68.585 54.400 C 68.079 54.400,66.044 56.310,66.289 56.556 C 66.423 56.690,66.317 56.800,66.053 56.800 C 65.371 56.800,62.798 59.458,63.127 59.824 C 63.277 59.991,63.204 60.017,62.965 59.881 C 62.726 59.745,61.834 60.346,60.984 61.217 C 60.133 62.087,59.546 62.800,59.679 62.800 C 59.812 62.800,59.417 63.340,58.800 64.000 C 58.183 64.660,57.574 65.200,57.445 65.200 C 57.115 65.200,54.424 68.134,54.411 68.509 C 54.405 68.678,53.455 69.788,52.300 70.975 C 51.145 72.163,49.570 73.978,48.800 75.010 C 48.030 76.041,46.995 77.324,46.500 77.861 C 46.005 78.397,45.600 79.019,45.600 79.242 C 45.600 79.465,45.389 79.517,45.132 79.358 C 44.834 79.174,44.743 79.274,44.882 79.636 C 45.116 80.246,44.245 81.312,43.843 80.909 C 43.618 80.685,43.443 81.404,43.553 82.100 C 43.579 82.265,43.311 82.400,42.957 82.400 C 42.550 82.400,42.399 82.620,42.545 83.000 C 42.671 83.330,42.601 83.600,42.387 83.600 C 42.174 83.600,42.000 83.798,42.000 84.040 C 42.000 84.281,41.505 84.958,40.900 85.543 C 40.295 86.129,39.742 86.876,39.670 87.204 C 39.599 87.532,39.374 87.860,39.170 87.933 C 38.967 88.007,38.800 88.322,38.800 88.633 C 38.800 88.945,38.620 89.200,38.400 89.200 C 38.180 89.200,38.000 89.481,38.000 89.824 C 38.000 90.167,37.820 90.336,37.600 90.200 C 37.380 90.064,37.200 90.233,37.200 90.576 C 37.200 90.919,37.009 91.200,36.776 91.200 C 36.543 91.200,36.464 91.380,36.600 91.600 C 36.736 91.820,36.657 92.000,36.424 92.000 C 36.191 92.000,36.000 92.360,36.000 92.800 C 36.000 93.240,35.779 93.555,35.509 93.500 C 35.240 93.445,34.957 93.808,34.881 94.306 C 34.805 94.804,34.576 95.109,34.371 94.982 C 34.167 94.856,34.000 95.044,34.000 95.400 C 34.000 95.756,34.168 95.944,34.372 95.817 C 34.577 95.691,34.858 95.770,34.996 95.993 C 35.134 96.217,35.057 96.400,34.824 96.400 C 33.718 96.400,36.540 99.345,64.600 127.474 C 91.387 154.327,94.630 157.711,94.877 159.074 C 95.029 159.913,95.203 164.290,95.262 168.800 C 95.322 173.310,95.485 160.890,95.625 141.200 C 95.896 103.174,95.815 104.745,97.803 99.000 C 102.173 86.372,112.957 77.098,126.187 74.588 C 130.978 73.679,272.904 73.696,277.229 74.606 C 292.164 77.748,300.896 85.630,303.590 98.400 C 304.155 101.077,304.165 112.859,303.604 114.797 C 303.337 115.722,303.198 149.647,303.195 214.997 C 303.191 298.450,303.103 314.127,302.630 315.906 C 301.450 320.338,298.513 323.702,294.517 325.197 C 292.445 325.972,291.330 326.003,262.485 326.076 C 239.310 326.135,235.204 326.212,244.200 326.420 C 250.580 326.568,257.621 326.714,259.846 326.744 L 263.892 326.800 282.836 345.769 C 294.288 357.235,302.339 364.991,303.191 365.378 C 304.195 365.833,304.396 365.856,303.891 365.458 C 303.218 364.927,303.223 364.887,303.991 364.686 C 304.437 364.570,304.700 364.638,304.577 364.837 C 304.454 365.037,304.723 365.200,305.176 365.200 C 305.629 365.200,306.000 365.020,306.000 364.800 C 306.000 364.580,306.135 364.421,306.300 364.447 C 307.101 364.574,307.339 364.345,306.800 363.968 C 306.323 363.634,306.375 363.596,307.053 363.786 C 307.614 363.943,307.985 363.815,308.140 363.412 C 308.269 363.075,308.757 362.800,309.225 362.800 C 309.738 362.800,310.158 362.483,310.284 362.000 C 310.399 361.560,310.789 361.200,311.150 361.200 C 311.512 361.200,312.032 360.840,312.307 360.400 C 312.582 359.960,313.165 359.600,313.603 359.600 C 314.042 359.600,314.400 359.420,314.400 359.200 C 314.400 358.980,314.771 358.800,315.224 358.800 C 315.677 358.800,315.939 358.625,315.807 358.412 C 315.675 358.198,316.025 357.909,316.584 357.768 C 317.143 357.628,317.600 357.263,317.600 356.957 C 317.600 356.650,317.735 356.421,317.900 356.447 C 318.697 356.573,319.222 356.360,319.000 356.000 C 318.864 355.780,319.044 355.600,319.400 355.600 C 319.756 355.600,319.937 355.422,319.803 355.205 C 319.658 354.970,319.837 354.916,320.245 355.073 C 320.711 355.251,320.838 355.185,320.642 354.868 C 320.468 354.587,320.602 354.400,320.976 354.400 C 321.319 354.400,321.600 354.220,321.600 354.000 C 321.600 353.780,321.881 353.600,322.224 353.600 C 322.567 353.600,322.736 353.420,322.600 353.200 C 322.464 352.980,322.628 352.800,322.964 352.800 C 323.301 352.800,323.975 352.260,324.463 351.600 C 324.951 350.940,325.558 350.400,325.813 350.400 C 326.067 350.400,327.382 349.320,328.735 348.000 C 330.088 346.680,331.387 345.600,331.621 345.600 C 331.856 345.600,331.936 345.420,331.800 345.200 C 331.664 344.980,331.839 344.800,332.189 344.800 C 332.539 344.800,332.989 344.395,333.188 343.900 C 333.387 343.405,333.561 343.238,333.575 343.529 C 333.605 344.162,334.800 343.121,334.800 342.461 C 334.800 342.243,335.385 341.702,336.100 341.258 C 337.734 340.244,344.095 333.609,343.466 333.575 C 343.209 333.561,343.405 333.387,343.900 333.188 C 344.395 332.989,344.800 332.539,344.800 332.189 C 344.800 331.839,344.980 331.664,345.200 331.800 C 345.420 331.936,345.600 331.844,345.600 331.597 C 345.600 331.349,346.680 330.076,348.000 328.768 C 349.320 327.460,350.400 326.226,350.400 326.026 C 350.400 325.826,351.120 324.956,352.000 324.093 C 352.880 323.231,353.600 322.356,353.600 322.151 C 353.600 321.945,353.960 321.517,354.400 321.200 C 354.840 320.883,355.200 320.412,355.200 320.154 C 355.200 319.897,355.496 319.572,355.857 319.433 C 356.219 319.295,356.410 319.076,356.281 318.948 C 356.153 318.820,356.443 318.293,356.924 317.777 C 358.491 316.098,358.800 315.643,358.800 315.017 C 358.800 314.678,358.950 314.400,359.132 314.400 C 359.315 314.400,359.720 313.908,360.032 313.307 C 360.345 312.706,361.095 311.689,361.700 311.048 C 362.305 310.406,362.800 309.638,362.800 309.341 C 362.800 309.043,362.980 308.800,363.200 308.800 C 363.420 308.800,363.600 308.530,363.600 308.200 C 363.600 307.870,363.750 307.600,363.932 307.600 C 364.115 307.600,364.520 307.105,364.832 306.500 C 365.145 305.895,365.715 305.051,366.100 304.625 C 366.485 304.198,366.800 303.641,366.800 303.387 C 366.800 303.132,367.160 302.598,367.600 302.200 C 368.040 301.802,368.400 301.133,368.400 300.714 C 368.400 300.296,368.580 300.064,368.800 300.200 C 369.020 300.336,369.200 300.077,369.200 299.624 C 369.200 299.171,369.380 298.800,369.600 298.800 C 369.820 298.800,370.000 298.468,370.000 298.062 C 370.000 297.656,370.360 296.998,370.800 296.600 C 371.240 296.202,371.600 295.634,371.600 295.338 C 371.600 295.042,371.780 294.800,372.000 294.800 C 372.220 294.800,372.400 294.440,372.400 294.000 C 372.400 293.560,372.591 293.200,372.824 293.200 C 373.057 293.200,373.145 293.035,373.020 292.832 C 372.895 292.630,373.077 292.180,373.425 291.832 C 373.773 291.485,373.950 291.200,373.819 291.200 C 373.689 291.200,373.856 290.781,374.192 290.268 C 374.528 289.756,374.682 289.216,374.535 289.068 C 374.387 288.921,374.477 288.800,374.733 288.800 C 374.990 288.800,375.200 288.440,375.200 288.000 C 375.200 287.560,375.380 287.200,375.600 287.200 C 375.820 287.200,376.000 286.840,376.000 286.400 C 376.000 285.960,376.180 285.600,376.400 285.600 C 376.620 285.600,376.800 285.240,376.800 284.800 C 376.800 284.360,376.980 284.000,377.200 284.000 C 377.420 284.000,377.600 283.640,377.600 283.200 C 377.600 282.760,377.780 282.400,378.000 282.400 C 378.220 282.400,378.400 282.040,378.400 281.600 C 378.400 281.160,378.580 280.800,378.800 280.800 C 379.020 280.800,379.200 280.440,379.200 280.000 C 379.200 279.560,379.391 279.200,379.624 279.200 C 379.857 279.200,379.956 279.052,379.844 278.871 C 379.732 278.691,379.902 278.040,380.220 277.426 C 380.539 276.811,380.800 276.059,380.800 275.754 C 380.800 275.449,380.980 275.200,381.200 275.200 C 381.420 275.200,381.600 274.840,381.600 274.400 C 381.600 273.960,381.742 273.600,381.915 273.600 C 382.088 273.600,382.260 273.198,382.297 272.706 C 382.334 272.214,382.552 271.749,382.782 271.673 C 383.012 271.596,383.200 271.008,383.200 270.367 C 383.200 269.725,383.380 269.200,383.600 269.200 C 383.820 269.200,384.000 268.851,384.000 268.424 C 384.000 267.997,384.180 267.536,384.400 267.400 C 384.620 267.264,384.800 266.713,384.800 266.176 C 384.800 265.639,384.980 265.200,385.200 265.200 C 385.420 265.200,385.600 264.660,385.600 264.000 C 385.600 263.340,385.780 262.800,386.000 262.800 C 386.220 262.800,386.400 262.260,386.400 261.600 C 386.400 260.940,386.580 260.400,386.800 260.400 C 387.020 260.400,387.200 259.871,387.200 259.224 C 387.200 258.577,387.380 257.936,387.600 257.800 C 387.820 257.664,388.000 257.034,388.000 256.400 C 388.000 255.766,388.180 255.136,388.400 255.000 C 388.620 254.864,388.800 254.324,388.800 253.800 C 388.800 253.276,388.980 252.736,389.200 252.600 C 389.420 252.464,389.600 251.744,389.600 251.000 C 389.600 250.256,389.780 249.536,390.000 249.400 C 390.220 249.264,390.400 248.612,390.400 247.950 C 390.400 247.289,390.577 246.416,390.794 246.012 C 391.010 245.607,391.306 243.999,391.451 242.438 C 391.596 240.877,391.869 239.600,392.057 239.600 C 392.246 239.600,392.400 238.700,392.400 237.600 C 392.400 236.500,392.580 235.600,392.800 235.600 C 393.022 235.600,393.200 234.533,393.200 233.200 C 393.200 231.867,393.378 230.800,393.600 230.800 C 393.831 230.800,394.000 229.533,394.000 227.800 C 394.000 226.067,394.169 224.800,394.400 224.800 C 394.635 224.800,394.800 223.408,394.800 221.424 C 394.800 219.567,394.980 217.936,395.200 217.800 C 395.457 217.641,395.600 211.270,395.600 200.000 C 395.600 188.730,395.457 182.359,395.200 182.200 C 394.980 182.064,394.800 180.343,394.800 178.376 C 394.800 176.259,394.637 174.800,394.400 174.800 C 394.171 174.800,394.000 173.600,394.000 172.000 C 394.000 170.400,393.829 169.200,393.600 169.200 C 393.378 169.200,393.200 168.133,393.200 166.800 C 393.200 165.467,393.022 164.400,392.800 164.400 C 392.580 164.400,392.400 163.470,392.400 162.333 C 392.400 161.197,392.265 160.401,392.101 160.566 C 391.937 160.730,391.572 159.275,391.291 157.332 C 390.410 151.235,390.324 150.800,389.958 150.574 C 389.761 150.452,389.600 149.744,389.600 149.000 C 389.600 148.256,389.420 147.536,389.200 147.400 C 388.980 147.264,388.800 146.749,388.800 146.256 C 388.800 145.763,388.626 145.186,388.413 144.973 C 388.201 144.761,387.983 144.005,387.928 143.293 C 387.874 142.582,387.688 142.000,387.515 142.000 C 387.342 142.000,387.200 141.460,387.200 140.800 C 387.200 140.140,387.064 139.600,386.897 139.600 C 386.531 139.600,385.600 136.733,385.600 135.606 C 385.600 135.163,385.420 134.800,385.200 134.800 C 384.980 134.800,384.800 134.451,384.800 134.024 C 384.800 133.597,384.620 133.136,384.400 133.000 C 384.180 132.864,384.000 132.313,384.000 131.776 C 384.000 131.239,383.820 130.800,383.600 130.800 C 383.380 130.800,383.200 130.260,383.200 129.600 C 383.200 128.940,383.020 128.400,382.800 128.400 C 382.580 128.400,382.400 127.950,382.400 127.400 C 382.400 126.850,382.220 126.400,382.000 126.400 C 381.780 126.400,381.600 126.040,381.600 125.600 C 381.600 125.160,381.420 124.800,381.200 124.800 C 380.980 124.800,380.800 124.451,380.800 124.024 C 380.800 123.597,380.620 123.136,380.400 123.000 C 380.180 122.864,380.000 122.313,380.000 121.776 C 380.000 121.239,379.820 120.800,379.600 120.800 C 379.380 120.800,379.200 120.440,379.200 120.000 C 379.200 119.560,379.020 119.200,378.800 119.200 C 378.580 119.200,378.400 118.840,378.400 118.400 C 378.400 117.960,378.220 117.600,378.000 117.600 C 377.780 117.600,377.600 117.240,377.600 116.800 C 377.600 116.360,377.420 116.000,377.200 116.000 C 376.980 116.000,376.800 115.640,376.800 115.200 C 376.800 114.760,376.620 114.400,376.400 114.400 C 376.180 114.400,376.000 114.040,376.000 113.600 C 376.000 113.160,375.820 112.800,375.600 112.800 C 375.380 112.800,375.200 112.536,375.200 112.214 C 375.200 111.490,373.911 108.649,373.500 108.467 C 373.335 108.393,373.200 107.988,373.200 107.567 C 373.200 107.145,373.020 106.800,372.800 106.800 C 372.580 106.800,372.400 106.440,372.400 106.000 C 372.400 105.560,372.220 105.200,372.000 105.200 C 371.780 105.200,371.600 104.964,371.600 104.675 C 371.600 104.387,371.240 103.764,370.800 103.292 C 370.360 102.820,370.000 102.156,370.000 101.817 C 370.000 101.478,369.820 101.200,369.600 101.200 C 369.380 101.200,369.200 100.840,369.200 100.400 C 369.200 99.960,369.020 99.600,368.800 99.600 C 368.580 99.600,368.400 99.358,368.400 99.062 C 368.400 98.766,368.040 98.198,367.600 97.800 C 367.160 97.402,366.800 96.834,366.800 96.538 C 366.800 96.242,366.620 96.000,366.400 96.000 C 366.180 96.000,366.000 95.730,366.000 95.400 C 366.000 95.070,365.820 94.800,365.600 94.800 C 365.380 94.800,365.200 94.564,365.200 94.275 C 365.200 93.987,364.840 93.364,364.400 92.892 C 363.960 92.420,363.600 91.846,363.600 91.617 C 363.600 91.388,363.420 91.200,363.200 91.200 C 362.980 91.200,362.800 90.912,362.800 90.560 C 362.800 90.209,362.260 89.417,361.600 88.800 C 360.940 88.183,360.400 87.431,360.400 87.128 C 360.400 86.825,360.040 86.317,359.600 86.000 C 359.160 85.683,358.800 85.186,358.800 84.895 C 358.800 84.604,358.617 84.149,358.393 83.883 C 356.894 82.106,356.400 81.446,356.400 81.222 C 356.400 81.082,355.770 80.299,355.000 79.482 C 354.230 78.666,353.591 77.864,353.580 77.699 C 353.570 77.535,352.851 76.680,351.983 75.800 C 351.116 74.920,350.404 74.055,350.403 73.878 C 350.401 73.701,349.320 72.496,348.000 71.200 C 346.680 69.904,345.600 68.681,345.600 68.481 C 345.600 67.879,335.417 57.600,334.820 57.600 C 334.516 57.600,334.380 57.487,334.519 57.348 C 334.784 57.083,332.034 54.425,331.478 54.409 C 331.301 54.404,330.096 53.320,328.800 52.000 C 327.504 50.680,326.318 49.600,326.164 49.600 C 326.009 49.600,325.047 48.835,324.025 47.900 C 322.007 46.053,319.471 44.020,318.446 43.426 C 318.091 43.220,317.581 42.860,317.314 42.626 C 315.954 41.434,315.591 41.200,315.105 41.200 C 314.814 41.200,314.317 40.840,314.000 40.400 C 313.683 39.960,313.175 39.600,312.872 39.600 C 312.569 39.600,311.817 39.060,311.200 38.400 C 310.583 37.740,309.874 37.200,309.623 37.200 C 309.372 37.200,308.790 36.849,308.329 36.420 C 307.869 35.991,306.875 35.347,306.122 34.990 C 305.368 34.632,304.653 34.083,304.533 33.770 C 304.413 33.456,304.002 33.200,303.619 33.200 C 303.237 33.200,302.598 32.840,302.200 32.400 C 301.802 31.960,301.234 31.600,300.938 31.600 C 300.642 31.600,300.400 31.420,300.400 31.200 C 300.400 30.980,300.166 30.800,299.880 30.800 C 299.144 30.800,297.207 29.859,297.203 29.500 C 297.201 29.335,296.930 29.200,296.600 29.200 C 296.270 29.200,296.000 29.020,296.000 28.800 C 296.000 28.580,295.730 28.400,295.400 28.400 C 295.070 28.400,294.800 28.220,294.800 28.000 C 294.800 27.780,294.440 27.600,294.000 27.600 C 293.560 27.600,293.200 27.420,293.200 27.200 C 293.200 26.980,292.855 26.800,292.433 26.800 C 292.012 26.800,291.607 26.665,291.533 26.500 C 291.351 26.089,288.510 24.800,287.786 24.800 C 287.464 24.800,287.200 24.620,287.200 24.400 C 287.200 24.180,286.840 24.000,286.400 24.000 C 285.960 24.000,285.600 23.820,285.600 23.600 C 285.600 23.380,285.240 23.200,284.800 23.200 C 284.360 23.200,284.000 23.020,284.000 22.800 C 284.000 22.580,283.640 22.400,283.200 22.400 C 282.760 22.400,282.400 22.220,282.400 22.000 C 282.400 21.780,282.040 21.600,281.600 21.600 C 281.160 21.600,280.800 21.420,280.800 21.200 C 280.800 20.980,280.440 20.800,280.000 20.800 C 279.560 20.800,279.200 20.620,279.200 20.400 C 279.200 20.180,278.761 20.000,278.224 20.000 C 277.687 20.000,277.136 19.820,277.000 19.600 C 276.864 19.380,276.403 19.200,275.976 19.200 C 275.549 19.200,275.200 19.020,275.200 18.800 C 275.200 18.580,274.840 18.400,274.400 18.400 C 273.960 18.400,273.600 18.220,273.600 18.000 C 273.600 17.780,273.150 17.600,272.600 17.600 C 272.050 17.600,271.600 17.420,271.600 17.200 C 271.600 16.980,271.060 16.800,270.400 16.800 C 269.740 16.800,269.200 16.620,269.200 16.400 C 269.200 16.180,268.840 16.000,268.400 16.000 C 267.960 16.000,267.600 15.820,267.600 15.600 C 267.600 15.380,267.060 15.200,266.400 15.200 C 265.740 15.200,265.200 15.020,265.200 14.800 C 265.200 14.580,264.660 14.400,264.000 14.400 C 263.340 14.400,262.800 14.220,262.800 14.000 C 262.800 13.780,262.260 13.600,261.600 13.600 C 260.940 13.600,260.400 13.420,260.400 13.200 C 260.400 12.980,259.860 12.800,259.200 12.800 C 258.540 12.800,258.000 12.620,258.000 12.400 C 258.000 12.180,257.471 12.000,256.824 12.000 C 256.177 12.000,255.536 11.820,255.400 11.600 C 255.264 11.380,254.634 11.200,254.000 11.200 C 253.366 11.200,252.736 11.020,252.600 10.800 C 252.464 10.580,251.744 10.400,251.000 10.400 C 250.256 10.400,249.553 10.248,249.438 10.061 C 249.323 9.875,248.693 9.707,248.039 9.689 C 247.385 9.670,246.518 9.477,246.113 9.260 C 245.707 9.043,244.076 8.738,242.488 8.581 C 240.899 8.425,239.600 8.140,239.600 7.948 C 239.600 7.757,238.599 7.600,237.376 7.600 C 235.996 7.600,235.247 7.448,235.400 7.200 C 235.554 6.950,234.737 6.800,233.224 6.800 C 231.875 6.800,230.800 6.623,230.800 6.400 C 230.800 6.171,229.600 6.000,228.000 6.000 C 226.400 6.000,225.200 5.829,225.200 5.600 C 225.200 5.361,223.667 5.200,221.400 5.200 C 219.133 5.200,217.600 5.039,217.600 4.800 C 217.600 4.268,182.520 4.248,182.333 4.780 M125.360 80.403 C 114.657 83.171,105.713 91.584,102.826 101.600 C 102.540 102.590,102.106 103.940,101.860 104.600 C 101.543 105.455,101.404 118.752,101.379 150.800 C 101.357 179.076,101.441 190.077,101.606 180.400 C 101.751 171.930,101.899 164.984,101.935 164.964 C 101.971 164.945,107.490 170.421,114.200 177.133 L 126.400 189.338 126.400 148.489 C 126.400 101.140,126.284 102.504,130.665 98.342 C 134.153 95.029,134.240 95.013,148.400 94.898 C 163.459 94.776,163.042 94.830,162.147 93.091 C 157.077 83.243,138.780 76.933,125.360 80.403 M156.801 79.900 C 156.801 80.065,157.598 80.703,158.572 81.319 C 159.547 81.934,161.661 83.844,163.272 85.563 C 169.198 91.889,171.446 98.851,171.146 109.961 L 171.000 115.400 234.269 115.501 L 297.537 115.602 298.027 114.119 C 298.672 112.163,298.685 101.190,298.044 98.800 C 295.430 89.049,289.117 83.241,278.090 80.441 C 274.684 79.576,156.799 79.050,156.801 79.900 M137.935 100.473 C 137.130 100.687,135.752 101.478,134.873 102.230 C 131.790 104.869,131.991 100.355,132.071 165.171 C 132.111 196.977,132.253 217.107,132.387 209.905 C 132.528 202.330,132.793 196.677,133.015 196.495 C 133.234 196.316,144.704 207.519,159.627 222.487 C 182.016 244.943,185.733 248.832,185.027 249.065 C 184.572 249.215,179.340 249.455,173.400 249.599 C 167.316 249.747,185.252 249.892,214.477 249.931 L 266.355 250.000 266.977 250.889 C 267.811 252.080,267.762 253.311,266.835 254.456 L 266.071 255.400 228.535 255.605 C 207.891 255.718,191.459 255.853,192.021 255.905 C 192.767 255.974,196.374 259.328,205.423 268.364 L 217.804 280.727 216.402 280.959 C 215.631 281.087,211.850 281.236,208.000 281.290 C 204.150 281.344,215.461 281.481,233.135 281.594 L 265.271 281.800 266.035 282.744 C 267.062 284.013,266.998 285.038,265.818 286.218 L 264.836 287.200 228.318 287.282 C 200.873 287.343,195.898 287.418,208.293 287.582 L 224.787 287.800 229.024 292.000 C 231.355 294.310,238.571 301.510,245.059 308.000 L 256.856 319.800 250.128 320.015 C 246.428 320.133,254.223 320.268,267.451 320.315 C 293.663 320.408,293.067 320.454,295.284 318.127 C 297.767 315.521,297.600 322.786,297.600 217.353 L 297.600 121.207 232.042 121.104 C 156.636 120.984,164.546 121.467,164.964 117.010 C 165.636 109.855,165.679 102.964,165.062 101.486 L 164.441 100.000 151.920 100.041 C 145.034 100.064,138.741 100.258,137.935 100.473 M269.511 155.023 C 270.692 155.850,270.717 157.989,269.558 159.038 C 268.546 159.954,168.169 160.491,165.082 159.597 C 162.811 158.939,162.201 156.656,163.855 155.002 C 164.787 154.070,268.180 154.090,269.511 155.023 M268.546 186.829 C 269.836 187.843,269.951 189.649,268.800 190.800 C 268.008 191.592,267.467 191.600,215.800 191.600 C 164.133 191.600,163.592 191.592,162.800 190.800 C 162.005 190.005,161.745 188.196,162.306 187.366 C 163.202 186.042,163.907 186.024,215.846 186.012 L 267.492 186.000 268.546 186.829 M267.971 219.054 C 269.060 220.438,269.018 221.419,267.818 222.618 L 266.836 223.600 214.800 223.600 L 162.764 223.600 161.782 222.618 C 161.242 222.078,160.800 221.260,160.800 220.800 C 160.800 220.340,161.242 219.522,161.782 218.982 L 162.764 218.000 214.953 218.000 L 267.142 218.000 267.971 219.054 " stroke="none" fill="#e94f47" fill-rule="evenodd"></path><path id="path1" d="M132.400 74.045 C 113.882 74.887,100.795 85.758,96.338 104.000 C 95.895 105.812,95.800 124.045,95.800 207.489 L 95.800 308.778 96.711 309.689 C 97.620 310.599,97.644 310.600,111.950 310.714 L 126.279 310.828 126.729 314.010 C 127.464 319.202,129.793 322.654,133.936 324.688 L 136.200 325.800 214.274 325.904 C 291.729 326.007,292.366 326.002,294.506 325.201 C 298.513 323.702,301.449 320.342,302.630 315.906 C 303.103 314.127,303.191 298.450,303.195 214.997 C 303.198 149.647,303.337 115.722,303.604 114.797 C 304.675 111.097,304.039 98.975,302.534 94.400 C 299.121 84.024,289.384 76.640,276.200 74.430 C 273.167 73.921,142.796 73.573,132.400 74.045 M142.707 80.420 C 152.360 82.979,159.254 87.472,162.147 93.091 C 163.042 94.830,163.459 94.776,148.400 94.898 C 133.218 95.021,131.225 95.683,128.215 101.600 C 126.352 105.263,126.400 102.481,126.400 206.420 L 126.400 305.200 114.008 305.200 L 101.615 305.200 101.394 304.300 C 100.930 302.409,101.382 105.847,101.853 104.600 C 102.103 103.940,102.540 102.590,102.826 101.600 C 107.392 85.761,125.859 75.954,142.707 80.420 M278.090 80.441 C 289.117 83.241,295.430 89.049,298.044 98.800 C 298.685 101.190,298.672 112.163,298.027 114.119 L 297.537 115.602 234.269 115.501 L 171.000 115.400 171.146 109.961 C 171.315 103.717,170.654 98.573,169.224 95.000 C 167.098 89.686,162.532 83.820,158.572 81.319 C 157.598 80.703,156.801 80.065,156.801 79.900 C 156.799 79.050,274.684 79.576,278.090 80.441 M165.062 101.486 C 165.679 102.964,165.636 109.855,164.964 117.010 C 164.546 121.467,156.636 120.984,232.042 121.104 L 297.600 121.207 297.600 217.353 C 297.600 322.786,297.767 315.521,295.284 318.127 C 292.971 320.556,298.500 320.400,214.531 320.400 C 130.599 320.400,136.635 320.571,134.316 318.130 C 131.829 315.513,132.000 323.472,132.000 210.421 C 132.000 95.117,131.740 104.912,134.873 102.230 C 137.227 100.216,138.233 100.087,151.920 100.041 L 164.441 100.000 165.062 101.486 M163.855 155.002 C 162.201 156.656,162.811 158.939,165.082 159.597 C 168.169 160.491,268.546 159.954,269.558 159.038 C 270.717 157.989,270.692 155.850,269.511 155.023 C 268.180 154.090,164.787 154.070,163.855 155.002 M163.400 186.478 C 161.766 187.404,161.478 189.478,162.800 190.800 C 163.592 191.592,164.133 191.600,215.800 191.600 C 267.467 191.600,268.008 191.592,268.800 190.800 C 269.951 189.649,269.836 187.843,268.546 186.829 L 267.492 186.000 215.846 186.012 C 178.100 186.021,163.985 186.146,163.400 186.478 M161.782 218.982 C 161.242 219.522,160.800 220.340,160.800 220.800 C 160.800 221.260,161.242 222.078,161.782 222.618 L 162.764 223.600 214.800 223.600 L 266.836 223.600 267.818 222.618 C 269.018 221.419,269.060 220.438,267.971 219.054 L 267.142 218.000 214.953 218.000 L 162.764 218.000 161.782 218.982 M160.623 250.889 C 159.385 252.657,160.300 254.868,162.490 255.401 C 162.990 255.523,186.501 255.572,214.735 255.511 L 266.071 255.400 266.835 254.456 C 267.762 253.311,267.811 252.080,266.977 250.889 L 266.355 250.000 213.800 250.000 L 161.245 250.000 160.623 250.889 M161.000 281.878 C 159.852 282.150,159.200 283.156,159.200 284.654 C 159.200 287.382,155.356 287.200,212.907 287.200 L 264.836 287.200 265.818 286.218 C 266.998 285.038,267.062 284.012,266.035 282.744 L 265.271 281.800 213.535 281.744 C 185.081 281.713,161.440 281.774,161.000 281.878 " stroke="none" fill="#fbf6f7" fill-rule="evenodd"></path><path id="path2" d="M6.821 168.900 C 6.507 169.395,6.204 170.828,6.147 172.085 C 6.090 173.342,5.854 174.725,5.622 175.159 C 5.390 175.593,5.200 177.489,5.200 179.374 C 5.200 181.391,5.036 182.800,4.800 182.800 C 4.540 182.800,4.400 188.675,4.400 199.624 C 4.400 209.405,4.550 216.355,4.758 216.226 C 4.954 216.105,5.123 216.409,5.133 216.903 C 5.179 219.114,5.326 220.031,5.669 220.243 C 5.884 220.375,5.842 220.709,5.570 221.036 C 5.234 221.441,5.228 221.600,5.551 221.600 C 5.798 221.600,6.000 221.855,6.000 222.167 C 6.000 222.478,6.135 222.809,6.300 222.901 C 6.465 222.993,6.375 223.014,6.100 222.947 C 5.243 222.738,5.554 223.931,6.429 224.209 C 6.917 224.364,7.171 224.699,7.046 225.023 C 6.930 225.326,7.007 225.681,7.217 225.811 C 7.428 225.941,7.600 225.853,7.600 225.616 C 7.600 225.380,45.220 262.806,91.200 308.786 C 166.136 383.722,175.824 393.480,174.428 392.617 C 174.223 392.491,173.949 392.559,173.819 392.768 C 173.682 392.991,174.032 393.069,174.657 392.955 C 175.605 392.783,175.668 392.836,175.198 393.403 C 174.904 393.756,174.830 394.014,175.032 393.975 C 175.952 393.800,176.824 394.037,176.600 394.400 C 176.254 394.960,176.940 394.900,177.520 394.320 C 177.803 394.037,178.000 394.009,178.000 394.250 C 178.000 394.476,179.035 394.705,180.300 394.760 C 183.679 394.906,183.958 394.945,183.772 395.245 C 183.679 395.395,191.145 395.545,200.362 395.577 C 211.542 395.616,217.168 395.499,217.261 395.224 C 217.337 394.998,218.660 394.789,220.200 394.760 C 221.740 394.731,223.203 394.544,223.452 394.344 C 223.701 394.145,225.006 393.950,226.352 393.913 C 227.754 393.873,228.803 393.663,228.806 393.422 C 228.810 393.146,228.914 393.138,229.106 393.400 C 229.511 393.951,230.400 394.088,230.400 393.600 C 230.400 393.380,230.741 393.200,231.157 393.200 C 232.288 393.200,232.481 392.211,231.363 392.143 C 230.849 392.112,230.444 392.202,230.462 392.343 C 230.480 392.484,230.473 392.761,230.447 392.958 C 230.421 393.154,215.447 378.349,197.171 360.058 L 163.942 326.800 151.777 326.800 C 144.086 326.800,138.911 326.633,137.706 326.346 C 130.828 324.707,126.422 319.698,126.406 313.500 L 126.400 311.200 111.900 311.187 C 96.282 311.174,96.434 311.194,95.616 309.041 C 95.349 308.341,95.200 301.161,95.199 289.074 C 95.198 278.693,95.079 267.356,94.935 263.880 L 94.673 257.560 51.337 214.229 C 27.501 190.398,8.000 170.697,8.000 170.450 C 8.000 170.202,7.629 170.000,7.176 170.000 C 6.720 170.000,6.465 169.819,6.604 169.593 C 6.742 169.370,7.004 169.279,7.186 169.391 C 7.462 169.562,8.000 168.752,8.000 168.167 C 8.000 167.689,7.322 168.111,6.821 168.900 M101.802 284.519 C 101.636 295.484,101.658 304.198,101.853 304.367 C 102.044 304.532,107.645 304.586,114.300 304.487 L 126.400 304.307 126.397 298.653 C 126.395 295.544,126.279 292.052,126.140 290.893 L 125.887 288.786 113.993 276.879 L 102.098 264.971 101.802 284.519 M133.050 298.377 C 132.921 299.599,132.790 303.570,132.760 307.200 C 132.657 319.603,133.209 320.077,147.577 319.909 L 156.954 319.800 145.120 307.977 L 133.286 296.153 133.050 298.377 M171.052 393.684 C 171.301 394.087,173.200 394.100,173.200 393.699 C 173.200 393.534,172.673 393.391,172.028 393.383 C 171.383 393.374,170.944 393.509,171.052 393.684 " stroke="none" fill="#a92d77" fill-rule="evenodd"></path><path id="path3" d="M5.257 223.394 C 5.185 224.781,5.289 225.141,5.716 224.977 C 6.159 224.807,6.231 225.215,6.081 227.026 C 5.944 228.677,6.043 229.382,6.447 229.637 C 6.846 229.890,6.861 229.989,6.500 229.994 C 6.225 229.997,6.000 230.191,6.000 230.424 C 6.000 230.657,6.180 230.736,6.400 230.600 C 6.634 230.455,6.814 230.903,6.833 231.676 C 6.852 232.404,6.943 233.360,7.036 233.800 C 7.129 234.240,7.313 235.410,7.444 236.400 C 7.575 237.390,7.844 238.371,8.041 238.580 C 8.238 238.789,8.400 239.719,8.400 240.647 C 8.400 241.622,8.611 242.418,8.900 242.535 C 9.285 242.690,9.279 242.744,8.876 242.768 C 8.588 242.786,8.466 242.983,8.604 243.207 C 8.742 243.430,8.944 244.101,9.052 244.698 C 9.160 245.295,9.378 245.877,9.535 245.991 C 9.693 246.106,9.804 246.740,9.782 247.400 C 9.760 248.060,9.916 248.717,10.128 248.859 C 10.341 249.001,10.534 249.842,10.557 250.726 C 10.581 251.611,10.735 252.469,10.900 252.634 C 11.065 252.799,11.206 253.308,11.213 253.767 C 11.220 254.225,11.465 254.915,11.757 255.300 C 12.050 255.686,12.203 256.451,12.098 257.000 C 11.993 257.550,12.068 258.000,12.266 258.000 C 12.464 258.000,12.860 258.855,13.146 259.900 C 13.433 260.945,13.820 262.160,14.007 262.600 C 14.194 263.040,14.561 264.120,14.823 265.000 C 15.084 265.880,15.456 266.913,15.649 267.295 C 15.842 267.677,16.000 268.247,16.000 268.561 C 16.000 268.876,16.178 269.193,16.397 269.267 C 16.615 269.340,16.834 269.895,16.884 270.500 C 16.934 271.105,17.115 271.600,17.287 271.600 C 17.459 271.600,17.600 272.050,17.600 272.600 C 17.600 273.150,17.780 273.600,18.000 273.600 C 18.220 273.600,18.400 273.960,18.400 274.400 C 18.400 274.840,18.580 275.200,18.800 275.200 C 19.020 275.200,19.200 275.560,19.200 276.000 C 19.200 276.440,19.380 276.800,19.600 276.800 C 19.820 276.800,20.000 277.239,20.000 277.776 C 20.000 278.313,20.180 278.864,20.400 279.000 C 20.620 279.136,20.800 279.597,20.800 280.024 C 20.800 280.451,20.935 280.801,21.100 280.803 C 21.451 280.807,22.400 282.737,22.400 283.446 C 22.400 283.714,22.542 283.993,22.715 284.067 C 22.888 284.140,23.532 285.280,24.147 286.600 C 24.761 287.920,25.790 290.060,26.432 291.356 C 27.074 292.652,27.600 293.957,27.600 294.256 C 27.600 294.555,27.780 294.800,28.000 294.800 C 28.220 294.800,28.400 295.036,28.400 295.325 C 28.400 295.613,28.760 296.236,29.200 296.708 C 29.640 297.180,30.000 297.829,30.000 298.150 C 30.000 298.471,30.166 298.793,30.370 298.867 C 30.573 298.940,30.798 299.263,30.870 299.584 C 30.941 299.906,31.315 300.525,31.700 300.960 C 32.085 301.395,32.400 301.987,32.400 302.275 C 32.400 302.564,32.580 302.800,32.800 302.800 C 33.020 302.800,33.200 303.070,33.200 303.400 C 33.200 303.730,33.380 304.000,33.600 304.000 C 33.820 304.000,34.000 304.270,34.000 304.600 C 34.000 304.930,34.180 305.200,34.400 305.200 C 34.620 305.200,34.800 305.470,34.800 305.800 C 34.800 306.130,34.968 306.400,35.173 306.400 C 35.378 306.400,35.660 306.759,35.799 307.198 C 35.938 307.636,36.304 308.247,36.612 308.555 C 36.920 308.863,37.223 309.357,37.286 309.653 C 37.349 309.950,37.895 310.671,38.500 311.257 C 39.105 311.842,39.600 312.520,39.600 312.764 C 39.600 313.008,40.140 313.772,40.800 314.463 C 41.460 315.154,42.000 315.934,42.000 316.198 C 42.000 316.462,42.315 317.048,42.700 317.501 C 43.085 317.955,43.670 318.721,44.000 319.205 C 44.330 319.689,45.185 320.677,45.900 321.402 C 46.615 322.127,47.200 322.889,47.200 323.096 C 47.200 323.302,47.815 324.031,48.566 324.715 C 49.318 325.399,50.051 326.330,50.195 326.785 C 50.340 327.240,50.625 327.508,50.829 327.382 C 51.033 327.256,51.200 327.348,51.200 327.587 C 51.200 327.826,51.986 328.850,52.947 329.863 C 55.561 332.618,56.000 333.159,56.000 333.624 C 56.000 333.857,56.180 333.936,56.400 333.800 C 56.620 333.664,56.800 333.833,56.800 334.176 C 56.800 334.519,57.070 334.800,57.400 334.800 C 57.730 334.800,58.000 334.982,58.000 335.204 C 58.000 335.734,65.506 343.200,66.038 343.200 C 66.263 343.200,66.336 343.380,66.200 343.600 C 66.064 343.820,66.107 344.000,66.295 344.000 C 66.755 344.000,68.074 345.031,70.387 347.200 C 72.719 349.387,73.936 350.400,74.230 350.400 C 74.352 350.400,74.906 350.940,75.461 351.600 C 76.017 352.260,76.653 352.800,76.876 352.800 C 77.098 352.800,77.873 353.385,78.598 354.100 C 79.323 354.815,80.317 355.670,80.807 356.000 C 81.297 356.330,81.905 356.797,82.159 357.038 C 82.412 357.280,83.290 357.795,84.110 358.184 C 84.929 358.573,85.600 359.051,85.600 359.246 C 85.600 359.441,85.881 359.600,86.224 359.600 C 86.567 359.600,86.736 359.780,86.600 360.000 C 86.464 360.220,86.651 360.400,87.016 360.400 C 87.381 360.400,88.158 360.895,88.743 361.500 C 89.329 362.105,90.074 362.659,90.400 362.732 C 90.726 362.805,91.084 362.985,91.196 363.133 C 91.308 363.280,91.895 363.656,92.500 363.968 C 93.105 364.280,93.600 364.685,93.600 364.868 C 93.600 365.050,93.870 365.200,94.200 365.200 C 94.530 365.200,94.800 365.380,94.800 365.600 C 94.800 365.820,95.070 366.000,95.400 366.000 C 95.730 366.000,96.000 366.180,96.000 366.400 C 96.000 366.620,96.188 366.800,96.417 366.800 C 96.646 366.800,97.220 367.160,97.692 367.600 C 98.164 368.040,98.787 368.400,99.075 368.400 C 99.364 368.400,99.600 368.580,99.600 368.800 C 99.600 369.020,99.960 369.200,100.400 369.200 C 100.840 369.200,101.200 369.380,101.200 369.600 C 101.200 369.820,101.560 370.000,102.000 370.000 C 102.440 370.000,102.800 370.180,102.800 370.400 C 102.800 370.620,103.070 370.800,103.400 370.800 C 103.730 370.800,104.000 370.980,104.000 371.200 C 104.000 371.420,104.371 371.600,104.824 371.600 C 105.277 371.600,105.536 371.780,105.400 372.000 C 105.264 372.220,105.436 372.400,105.782 372.400 C 106.499 372.400,108.056 373.204,108.494 373.800 C 108.656 374.020,108.791 374.050,108.794 373.867 C 108.797 373.684,109.406 373.909,110.147 374.367 C 110.888 374.825,111.788 375.200,112.147 375.200 C 112.506 375.200,112.800 375.380,112.800 375.600 C 112.800 375.820,113.034 376.000,113.320 376.000 C 114.056 376.000,115.993 376.941,115.997 377.300 C 115.999 377.465,116.253 377.600,116.562 377.600 C 117.228 377.600,120.541 379.268,120.733 379.700 C 120.807 379.865,121.392 380.000,122.033 380.000 C 122.675 380.000,123.200 380.180,123.200 380.400 C 123.200 380.620,123.560 380.800,124.000 380.800 C 124.440 380.800,124.800 380.980,124.800 381.200 C 124.800 381.420,125.160 381.600,125.600 381.600 C 126.040 381.600,126.400 381.780,126.400 382.000 C 126.400 382.220,126.850 382.400,127.400 382.400 C 127.950 382.400,128.400 382.580,128.400 382.800 C 128.400 383.020,128.929 383.200,129.576 383.200 C 130.223 383.200,130.864 383.380,131.000 383.600 C 131.136 383.820,131.687 384.000,132.224 384.000 C 132.761 384.000,133.200 384.141,133.200 384.313 C 133.200 384.485,134.055 384.860,135.100 385.146 C 136.145 385.433,137.360 385.816,137.800 385.997 C 139.400 386.658,140.248 386.944,142.800 387.687 C 144.230 388.104,145.932 388.525,146.582 388.624 C 147.232 388.723,147.943 388.983,148.162 389.202 C 148.381 389.421,149.154 389.600,149.880 389.600 C 150.606 389.600,151.200 389.799,151.200 390.043 C 151.200 390.286,151.467 390.383,151.793 390.258 C 152.119 390.133,153.109 390.286,153.993 390.598 C 154.877 390.909,155.600 391.076,155.600 390.968 C 155.600 390.860,155.945 390.957,156.368 391.183 C 156.926 391.482,157.190 391.458,157.336 391.097 C 157.495 390.703,157.543 390.704,157.568 391.100 C 157.588 391.407,158.188 391.600,159.120 391.600 C 159.956 391.600,160.811 391.762,161.020 391.959 C 161.403 392.321,163.242 392.653,167.100 393.055 C 168.255 393.175,169.200 393.401,169.200 393.556 C 169.200 393.710,169.695 393.807,170.300 393.770 C 170.905 393.733,171.400 393.665,171.400 393.618 C 171.400 393.572,171.805 393.488,172.300 393.434 C 172.795 393.379,173.200 393.445,173.200 393.582 C 173.200 394.097,174.767 393.921,175.239 393.353 C 175.657 392.850,175.570 392.790,174.657 392.955 C 174.032 393.069,173.682 392.991,173.819 392.768 C 173.949 392.559,174.223 392.491,174.428 392.617 C 175.824 393.480,166.136 383.722,91.200 308.786 C 45.220 262.806,7.600 225.380,7.600 225.616 C 7.600 225.853,7.428 225.941,7.217 225.811 C 7.007 225.681,6.930 225.326,7.046 225.023 C 7.171 224.699,6.917 224.364,6.429 224.209 C 5.554 223.931,5.243 222.738,6.100 222.947 C 6.375 223.014,6.465 222.993,6.300 222.901 C 6.135 222.809,6.000 222.478,6.000 222.167 C 6.000 220.717,5.339 221.809,5.257 223.394 M96.624 310.587 C 97.051 310.910,97.670 311.174,98.000 311.173 C 98.348 311.172,98.180 310.932,97.600 310.600 C 96.285 309.848,95.636 309.840,96.624 310.587 M175.023 393.910 C 174.900 394.033,174.800 394.283,174.800 394.467 C 174.800 394.913,176.294 394.895,176.572 394.445 C 176.815 394.052,175.378 393.556,175.023 393.910 " stroke="none" fill="#9e3086" fill-rule="evenodd"></path><path id="path4" d="M34.181 95.926 C 33.495 96.419,31.034 100.149,31.625 99.801 C 31.941 99.614,31.698 99.975,31.084 100.601 C 30.471 101.228,30.062 101.986,30.177 102.285 C 30.292 102.585,30.124 102.931,29.804 103.054 C 29.210 103.282,26.923 107.553,27.102 108.100 C 27.156 108.265,27.065 108.401,26.900 108.401 C 26.735 108.402,26.150 109.392,25.600 110.600 C 25.050 111.808,24.465 112.798,24.300 112.799 C 24.135 112.799,24.000 113.160,24.000 113.600 C 24.000 114.040,23.820 114.400,23.600 114.400 C 23.380 114.400,23.200 114.760,23.200 115.200 C 23.200 115.640,23.020 116.000,22.800 116.000 C 22.580 116.000,22.400 116.461,22.400 117.024 C 22.400 117.604,22.227 117.940,22.000 117.800 C 21.780 117.664,21.600 117.923,21.600 118.376 C 21.600 118.829,21.420 119.200,21.200 119.200 C 20.980 119.200,20.800 119.639,20.800 120.176 C 20.800 120.713,20.620 121.264,20.400 121.400 C 20.180 121.536,20.000 121.997,20.000 122.424 C 20.000 122.851,19.820 123.200,19.600 123.200 C 19.380 123.200,19.200 123.472,19.200 123.805 C 19.200 124.138,19.020 124.768,18.800 125.205 C 18.580 125.642,18.220 126.358,18.000 126.795 C 17.780 127.232,17.600 127.862,17.600 128.195 C 17.600 128.528,17.420 128.800,17.200 128.800 C 16.980 128.800,16.800 129.162,16.800 129.605 C 16.800 130.048,16.641 130.723,16.447 131.105 C 15.850 132.278,15.276 133.726,14.745 135.400 C 14.465 136.280,14.093 137.171,13.918 137.380 C 13.743 137.589,13.600 138.228,13.600 138.800 C 13.600 139.372,13.431 140.011,13.225 140.220 C 13.018 140.429,12.785 141.088,12.706 141.685 C 12.628 142.282,12.437 142.897,12.282 143.052 C 12.127 143.207,12.000 143.743,12.000 144.243 C 12.000 144.743,11.811 145.269,11.581 145.412 C 11.350 145.554,11.207 145.970,11.263 146.335 C 11.318 146.701,11.153 147.382,10.895 147.849 C 10.637 148.316,10.500 149.081,10.590 149.549 C 10.680 150.017,10.597 150.400,10.405 150.400 C 10.214 150.400,9.836 151.435,9.567 152.700 C 8.880 155.923,8.817 156.312,8.557 158.901 C 8.430 160.166,8.187 161.116,8.018 161.011 C 7.849 160.907,7.708 161.221,7.704 161.711 C 7.677 165.069,7.516 166.187,7.200 165.200 C 6.960 164.450,6.871 164.799,6.846 166.600 C 6.823 168.224,6.933 168.810,7.184 168.412 C 7.389 168.088,7.661 167.927,7.788 168.054 C 8.119 168.386,7.578 169.634,7.203 169.402 C 6.796 169.151,5.807 170.340,6.143 170.676 C 6.284 170.818,6.400 170.723,6.400 170.467 C 6.400 170.210,6.760 170.000,7.200 170.000 C 7.640 170.000,8.000 170.202,8.000 170.450 C 8.000 170.697,27.501 190.398,51.337 214.229 L 94.673 257.560 94.935 263.880 C 95.079 267.356,95.201 278.660,95.205 289.000 C 95.209 299.340,95.344 308.008,95.506 308.263 C 95.668 308.518,95.756 305.908,95.703 302.463 C 95.650 299.018,95.530 265.690,95.437 228.400 C 95.343 191.110,95.117 159.913,94.933 159.074 C 94.643 157.742,90.755 153.701,64.468 127.405 C 47.895 110.828,34.335 97.135,34.334 96.977 C 34.333 96.819,34.546 96.557,34.809 96.395 C 35.071 96.233,35.123 95.999,34.924 95.876 C 34.725 95.753,34.390 95.776,34.181 95.926 M101.841 166.597 C 101.516 168.929,101.038 302.901,101.351 304.148 L 101.615 305.200 114.008 305.200 C 122.855 305.200,126.400 305.072,126.400 304.754 C 126.400 304.433,123.002 304.349,114.234 304.454 C 107.542 304.534,101.941 304.474,101.787 304.320 C 101.633 304.166,101.640 295.249,101.802 284.506 L 102.098 264.971 114.027 276.913 C 124.770 287.668,125.970 289.001,126.110 290.327 C 126.196 291.137,126.296 268.746,126.333 240.569 L 126.400 189.338 114.233 177.166 L 102.065 164.994 101.841 166.597 M132.934 196.507 C 131.910 198.163,131.604 312.377,132.616 315.244 C 133.292 317.161,134.808 318.962,136.480 319.836 C 137.622 320.432,232.223 320.610,249.349 320.048 L 256.897 319.800 241.065 304.000 C 226.091 289.057,225.139 288.186,223.516 287.948 C 222.572 287.809,208.120 287.567,191.400 287.409 C 157.882 287.093,159.200 287.206,159.200 284.667 C 159.200 281.600,157.137 281.832,187.057 281.535 C 201.753 281.389,214.692 281.156,215.810 281.016 L 217.841 280.762 205.542 268.481 C 197.123 260.074,192.890 256.120,192.122 255.947 C 191.505 255.808,184.499 255.673,176.554 255.647 C 160.234 255.594,160.000 255.551,160.000 252.633 C 160.000 249.900,160.305 249.829,173.173 249.558 C 179.493 249.425,184.919 249.155,185.232 248.958 C 185.664 248.686,179.483 242.297,159.492 222.351 C 145.022 207.915,133.071 196.284,132.934 196.507 M147.577 319.909 C 133.209 320.077,132.657 319.603,132.760 307.200 C 132.790 303.570,132.921 299.599,133.050 298.377 L 133.286 296.153 145.120 307.977 L 156.954 319.800 147.577 319.909 M98.137 310.894 C 98.392 311.056,104.900 311.153,112.600 311.110 C 120.300 311.067,124.890 310.982,122.800 310.919 C 113.533 310.643,97.716 310.627,98.137 310.894 M126.406 314.633 C 126.409 315.495,126.588 316.470,126.803 316.800 C 127.070 317.210,127.114 316.765,126.941 315.400 C 126.625 312.905,126.398 312.581,126.406 314.633 M127.205 317.928 C 127.198 318.660,129.279 321.594,130.658 322.796 C 131.688 323.694,131.675 323.655,130.527 322.396 C 129.828 321.628,128.795 320.190,128.232 319.200 C 127.670 318.210,127.207 317.638,127.205 317.928 M134.990 325.584 C 135.132 325.813,135.717 326.000,136.290 326.000 C 137.544 326.000,137.399 325.808,135.866 325.440 C 135.123 325.262,134.821 325.311,134.990 325.584 M138.200 326.374 C 138.640 326.577,144.612 326.756,151.472 326.772 L 163.943 326.800 197.357 360.244 C 215.735 378.639,230.702 393.329,230.617 392.889 C 230.497 392.265,230.666 392.101,231.380 392.144 C 231.885 392.175,232.230 392.380,232.147 392.600 C 231.959 393.097,234.897 393.290,235.199 392.801 C 235.320 392.606,236.260 392.403,237.287 392.350 C 238.315 392.296,239.076 392.123,238.977 391.963 C 238.879 391.804,239.744 391.578,240.899 391.460 C 244.483 391.094,245.606 390.891,246.112 390.518 C 246.380 390.320,247.230 390.105,248.000 390.039 C 248.770 389.973,249.490 389.783,249.600 389.617 C 249.710 389.450,250.135 389.365,250.545 389.428 C 250.954 389.491,251.674 389.394,252.145 389.213 C 252.615 389.032,253.810 388.659,254.800 388.384 C 257.910 387.521,261.776 386.319,262.400 386.021 C 262.730 385.864,263.855 385.485,264.900 385.180 C 265.945 384.875,266.800 384.485,266.800 384.313 C 266.800 384.141,267.239 384.000,267.776 384.000 C 268.313 384.000,268.864 383.820,269.000 383.600 C 269.136 383.380,269.687 383.200,270.224 383.200 C 270.761 383.200,271.200 383.020,271.200 382.800 C 271.200 382.580,271.549 382.400,271.976 382.400 C 272.403 382.400,272.864 382.220,273.000 382.000 C 273.136 381.780,273.687 381.600,274.224 381.600 C 274.761 381.600,275.200 381.420,275.200 381.200 C 275.200 380.980,275.560 380.800,276.000 380.800 C 276.440 380.800,276.800 380.620,276.800 380.400 C 276.800 380.180,277.149 380.000,277.576 380.000 C 278.003 380.000,278.464 379.820,278.600 379.600 C 278.736 379.380,279.287 379.200,279.824 379.200 C 280.361 379.200,280.800 379.020,280.800 378.800 C 280.800 378.580,281.160 378.400,281.600 378.400 C 282.040 378.400,282.400 378.220,282.400 378.000 C 282.400 377.780,282.760 377.600,283.200 377.600 C 283.640 377.600,284.000 377.420,284.000 377.200 C 284.000 376.980,284.360 376.800,284.800 376.800 C 285.240 376.800,285.600 376.654,285.600 376.475 C 285.600 376.296,286.230 375.902,287.000 375.600 C 287.770 375.298,288.400 374.904,288.400 374.725 C 288.400 374.546,288.672 374.400,289.005 374.400 C 289.668 374.400,291.256 373.597,291.645 373.066 C 291.779 372.882,291.965 372.792,292.058 372.866 C 292.439 373.170,295.600 371.435,295.600 370.922 C 295.600 370.615,295.825 370.392,296.100 370.426 C 296.882 370.521,298.400 369.945,298.400 369.553 C 298.400 369.359,298.670 369.200,299.000 369.200 C 299.330 369.200,299.600 369.020,299.600 368.800 C 299.600 368.580,299.825 368.445,300.100 368.500 C 300.375 368.555,300.555 368.375,300.500 368.100 C 300.445 367.825,300.535 367.621,300.700 367.647 C 301.823 367.825,302.569 367.568,302.000 367.200 C 301.502 366.878,301.536 366.810,302.200 366.800 C 303.527 366.780,304.336 366.090,303.600 365.606 C 303.270 365.389,303.189 365.209,303.420 365.206 C 303.651 365.203,304.036 365.396,304.275 365.635 C 304.588 365.948,304.785 365.948,304.978 365.635 C 305.126 365.396,305.046 365.200,304.800 365.200 C 304.554 365.200,304.464 365.021,304.599 364.801 C 304.762 364.538,304.500 364.534,303.826 364.790 C 302.307 365.368,303.150 366.131,282.888 345.832 L 263.977 326.885 257.688 326.649 C 246.502 326.230,137.345 325.978,138.200 326.374 M223.400 394.400 C 223.085 394.909,224.012 394.909,224.800 394.400 C 225.288 394.085,225.236 394.011,224.524 394.006 C 224.042 394.003,223.536 394.180,223.400 394.400 " stroke="none" fill="#c1346c" fill-rule="evenodd"></path></g></svg>